<svg xmlns="http://www.w3.org/2000/svg" viewBox="0 0 960 960" width="960" height="960">
  <title>Circadian light</title>
  <desc>A lightbulb below a daylight arc, between a sunrise and a sunset.</desc>

  <!-- GENERATED from artwork/masters/circadian-icon-master.svg by
       artwork/export-assets.py. Edit the master, then re-run the script;
       an edit here is lost on the next export.

       Homey renders an icon as a CSS mask painted one flat colour, fetched from
       icons-cdn.athom.com by this file's MD5, so colour inside it is discarded
       and only the silhouette survives. It also means a CLI-installed app shows
       no icon at all — that CDN only holds published builds. See CLAUDE.md §10.

       The transform centres the master's drawing and scales it to fill the
       canvas, which guideline 1.5 asks for; stroke widths are pre-divided by the
       scale so they render at 34 units on this 960 canvas. -->
  <g transform="translate(-318.9 -318.9) scale(3.1208)" fill="none" stroke="#000" stroke-linecap="round" stroke-linejoin="round" stroke-width="10.89">
    <g stroke-width="10.89">
    <rect x="117.5" y="117.5" width="277.0" height="277.0" rx="42.9"/>
    <path d="M169.6 265.4 A 86.4 86.4 0 0 1 332.8 225.8"/>
    <path d="M339.3 242.5 A 86.4 86.4 0 0 1 342.4 265.4"/>
    <circle cx="336.5" cy="234.0" r="9.0"/>
    <path d="M242.7 302.6 L242.7 296.0 C242.7 284.6 240.8 287.5 234.3 279.7 A 28.2 28.2 0 1 1 277.7 279.7 C271.2 287.5 269.3 284.6 269.3 296.0 L269.3 302.6 Z"/>
    <path d="M244.8 312.5 L267.2 312.5"/>
    <path d="M249.1 322.1 L262.9 322.1"/>
    </g>
    <g stroke-width="10.89">
    <path d="M158.2 308.3 A 10.2 10.2 0 0 1 178.6 308.3"/>
    <path d="M147.2 312.3 L189.7 312.3"/>
    <path d="M155.1 295.0 L152.1 291.9"/>
    <path d="M168.4 289.5 L168.4 285.2"/>
    <path d="M181.7 295.0 L184.7 291.9"/>
    <path d="M333.4 308.3 A 10.2 10.2 0 0 1 353.8 308.3"/>
    <path d="M322.3 312.3 L364.8 312.3"/>
    <path d="M330.3 295.0 L327.3 291.9"/>
    <path d="M343.6 289.5 L343.6 285.2"/>
    <path d="M356.9 295.0 L359.9 291.9"/>
    </g>
  </g>
</svg>
